<?xml version="1.0" encoding="utf-8"?>
<!-- Generator: Adobe Illustrator 18.1.1, SVG Export Plug-In . SVG Version: 6.00 Build 0)  -->
<svg version="1.1" id="Layer_1" xmlns="http://www.w3.org/2000/svg" xmlns:xlink="http://www.w3.org/1999/xlink" x="0px" y="0px"
	 viewBox="0 0 1224 792" enable-background="new 0 0 1224 792" xml:space="preserve">
<rect fill="#FFFFFF" width="2000" height="792"/>
<g>
	<text transform="matrix(1 0 0 1 188.6626 414.3359)"><tspan x="0" y="0" font-family="'Helvetica-Bold'" font-size="14">Use</tspan><tspan x="26.1" y="0" font-family="'Helvetica-Bold'" font-size="14">r</tspan></text>
	<rect x="149.5" y="372.3" fill="none" stroke="#000000" width="109.9" height="73.6"/>
	<text transform="matrix(1 0 0 1 831.8818 710.8495)"><tspan x="0" y="0" font-family="'Helvetica-Bold'" font-size="14">Fo</tspan><tspan x="17.4" y="0" font-family="'Helvetica-Bold'" font-size="14">ss</tspan><tspan x="33.2" y="0" font-family="'Helvetica-Bold'" font-size="14">olog</tspan><tspan x="63.3" y="0" font-family="'Helvetica-Bold'" font-size="14">y</tspan></text>
	<g>
		<defs>
			<rect id="SVGID_1_" x="119" y="49.1" width="1032" height="693.8"/>
		</defs>
		<clipPath id="SVGID_2_">
			<use xlink:href="#SVGID_1_"  overflow="visible"/>
		</clipPath>
		<rect x="812.5" y="668.8" clip-path="url(#SVGID_2_)" fill="none" stroke="#000000" width="109.9" height="73.6"/>
	</g>
	<text transform="matrix(1 0 0 1 1036.3604 477.0497)"><tspan x="0" y="0" font-family="'Helvetica-Bold'" font-size="14">SP</tspan><tspan x="19" y="0" font-family="'Helvetica-Bold'" font-size="14">D</tspan><tspan x="29.2" y="0" font-family="'Helvetica-Bold'" font-size="14">X </tspan><tspan x="42.7" y="0" font-family="'Helvetica-Bold'" font-size="14">Dat</tspan><tspan x="65.6" y="0" font-family="'Helvetica-Bold'" font-size="14">a</tspan></text>
	<text transform="matrix(1 0 0 1 1054.9248 493.8495)"><tspan x="0" y="0" font-family="'Helvetica-Bold'" font-size="14">S</tspan><tspan x="9.5" y="0" font-family="'Helvetica-Bold'" font-size="14">t</tspan><tspan x="14.3" y="0" font-family="'Helvetica-Bold'" font-size="14">o</tspan><tspan x="23" y="0" font-family="'Helvetica-Bold'" font-size="14">r</tspan><tspan x="28.5" y="0" font-family="'Helvetica-Bold'" font-size="14">e</tspan></text>
	<g>
		<defs>
			<rect id="SVGID_3_" x="119" y="49.1" width="1032" height="693.8"/>
		</defs>
		<clipPath id="SVGID_4_">
			<use xlink:href="#SVGID_3_"  overflow="visible"/>
		</clipPath>
		<polyline clip-path="url(#SVGID_4_)" fill="none" stroke="#000000" stroke-width="2" points="996.2,553.7 1150,553.7 1150,406.7 
			996.2,406.7 		"/>
	</g>
	<text transform="matrix(1 0 0 1 539.1016 217.2411)"><tspan x="0" y="0" font-family="'Helvetica-Bold'" font-size="14">S</tspan><tspan x="9.5" y="0" font-family="'Helvetica-Bold'" font-size="14">earc</tspan><tspan x="38.8" y="0" font-family="'Helvetica-Bold'" font-size="14">h</tspan></text>
	<g>
		<defs>
			<rect id="SVGID_5_" x="119" y="49.1" width="1032" height="693.8"/>
		</defs>
		<clipPath id="SVGID_6_">
			<use xlink:href="#SVGID_5_"  overflow="visible"/>
		</clipPath>
		<path clip-path="url(#SVGID_6_)" fill="none" stroke="#000000" d="M532.3,175.2c0,0-24,0-24,24v25.6c0,0,0,24,24,24h61.9
			c0,0,24,0,24-24v-25.6c0,0,0-24-24-24H532.3z"/>
	</g>
	<text transform="matrix(1 0 0 1 532.4082 414.3359)"><tspan x="0" y="0" font-family="'Helvetica-Bold'" font-size="14">Fil</tspan><tspan x="16.8" y="0" font-family="'Helvetica-Bold'" font-size="14">e</tspan><tspan x="24.7" y="0" font-family="'Helvetica-Bold'" font-size="14"> </tspan><tspan x="28.7" y="0" font-family="'Helvetica-Bold'" font-size="14">V</tspan><tspan x="37.9" y="0" font-family="'Helvetica-Bold'" font-size="14">i</tspan><tspan x="42" y="0" font-family="'Helvetica-Bold'" font-size="14">e</tspan><tspan x="49.9" y="0" font-family="'Helvetica-Bold'" font-size="14">w</tspan></text>
	<g>
		<defs>
			<rect id="SVGID_7_" x="119" y="49.1" width="1032" height="693.8"/>
		</defs>
		<clipPath id="SVGID_8_">
			<use xlink:href="#SVGID_7_"  overflow="visible"/>
		</clipPath>
		<path clip-path="url(#SVGID_8_)" fill="none" stroke="#000000" d="M532.3,372.3c0,0-24,0-24,24v25.6c0,0,0,24,24,24h61.9
			c0,0,24,0,24-24v-25.6c0,0,0-24-24-24H532.3z"/>
	</g>
	<text transform="matrix(1 0 0 1 538.7295 611.4306)"><tspan x="0" y="0" font-family="'Helvetica-Bold'" font-size="14">U</tspan><tspan x="10.2" y="0" font-family="'Helvetica-Bold'" font-size="14">plo</tspan><tspan x="31.6" y="0" font-family="'Helvetica-Bold'" font-size="14">a</tspan><tspan x="39.6" y="0" font-family="'Helvetica-Bold'" font-size="14">d</tspan></text>
	<g>
		<defs>
			<rect id="SVGID_9_" x="119" y="49.1" width="1032" height="693.8"/>
		</defs>
		<clipPath id="SVGID_10_">
			<use xlink:href="#SVGID_9_"  overflow="visible"/>
		</clipPath>
		<path clip-path="url(#SVGID_10_)" fill="none" stroke="#000000" d="M532.3,569.4c0,0-24,0-24,24V619c0,0,0,24,24,24h61.9
			c0,0,24,0,24-24v-25.6c0,0,0-24-24-24H532.3z"/>
	</g>
	<polyline fill="none" stroke="#000000" points="222.2,451.1 222.2,603.5 490.3,603.5 	"/>
	<polyline fill="none" stroke="#000000" points="486.3,599.8 490.3,603.5 486.3,607.2 	"/>
	<polyline fill="none" stroke="#000000" points="201.4,451.1 201.4,623.4 490.3,623.4 	"/>
	<polyline fill="none" stroke="#000000" points="486.3,619.7 490.3,623.4 486.3,627.1 	"/>
	<polyline fill="none" stroke="#000000" points="221.7,363.5 221.7,218.5 497.5,218.5 	"/>
	<polyline fill="none" stroke="#000000" points="493.5,214.8 497.5,218.5 493.5,222.2 	"/>
	<polyline fill="none" stroke="#000000" points="498.2,202.9 204.4,202.9 204.4,362.8 	"/>
	<polyline fill="none" stroke="#000000" points="208.2,358.7 204.4,362.8 200.7,358.7 	"/>
	<line fill="none" stroke="#000000" x1="271.4" y1="425.9" x2="497.5" y2="425.9"/>
	<polyline fill="none" stroke="#000000" points="493.5,422.2 497.5,425.9 493.5,429.6 	"/>
	<polyline fill="none" stroke="#000000" points="628.3,425.9 855.1,425.9 913.4,425.9 913.4,337.1 1027.4,337.1 1027.4,396.8 	"/>
	<polyline fill="none" stroke="#000000" points="1031.1,392.8 1027.4,396.8 1023.7,392.8 	"/>
	<line fill="none" stroke="#000000" x1="498.2" y1="401.6" x2="272.1" y2="401.6"/>
	<polyline fill="none" stroke="#000000" points="276.1,405.3 272.1,401.6 276.1,397.9 	"/>
	<polyline fill="none" stroke="#000000" points="1045.9,397.5 1045.9,293.9 855.1,293.9 855.1,401.6 629,401.6 	"/>
	<polyline fill="none" stroke="#000000" points="633,405.3 629,401.6 633,397.9 	"/>
	<polyline fill="none" stroke="#000000" points="638.6,202.4 1092.2,202.4 1092.2,396.8 	"/>
	<polyline fill="none" stroke="#000000" points="1095.9,392.8 1092.2,396.8 1088.5,392.8 	"/>
	<polyline fill="none" stroke="#000000" points="1073.6,397.5 1073.6,221.2 639.3,221.2 	"/>
	<polyline fill="none" stroke="#000000" points="643.3,224.9 639.3,221.2 643.3,217.5 	"/>
	<polyline fill="none" stroke="#000000" points="631.4,607.6 1041.8,607.6 1041.8,562.2 	"/>
	<polyline fill="none" stroke="#000000" points="1038.1,566.2 1041.8,562.2 1045.5,566.2 	"/>
	<polyline fill="none" stroke="#000000" points="575,658.7 575,705.5 798.9,705.5 	"/>
	<polyline fill="none" stroke="#000000" points="794.9,701.8 798.9,705.5 794.9,709.2 	"/>
	<polyline fill="none" stroke="#000000" points="932.6,704.6 1065.8,704.6 1065.8,562.2 	"/>
	<polyline fill="none" stroke="#000000" points="1062.1,566.2 1065.8,562.2 1069.5,566.2 	"/>
	<g>
		<defs>
			<rect id="SVGID_11_" x="119" y="49.1" width="1032" height="693.8"/>
		</defs>
		<clipPath id="SVGID_12_">
			<use xlink:href="#SVGID_11_"  overflow="visible"/>
		</clipPath>
		<g clip-path="url(#SVGID_12_)">
			<text transform="matrix(1 0 0 1 119 59.5854)"><tspan x="0" y="0" font-family="'Helvetica-Bold'" font-size="14">SP</tspan><tspan x="19" y="0" font-family="'Helvetica-Bold'" font-size="14">D</tspan><tspan x="29.2" y="0" font-family="'Helvetica-Bold'" font-size="14">X </tspan><tspan x="42.7" y="0" font-family="'Helvetica-Bold'" font-size="14">Das</tspan><tspan x="68.8" y="0" font-family="'Helvetica-Bold'" font-size="14">hbo</tspan><tspan x="94.8" y="0" font-family="'Helvetica-Bold'" font-size="14">ar</tspan><tspan x="108.3" y="0" font-family="'Helvetica-Bold'" font-size="14">d</tspan></text>
		</g>
		<g clip-path="url(#SVGID_12_)">
			<text transform="matrix(1 0 0 1 119 76.3857)"><tspan x="0" y="0" font-family="'Helvetica-Bold'" font-size="14">Data</tspan><tspan x="30.8" y="0" font-family="'Helvetica-Bold'" font-size="14"> Flow </tspan><tspan x="71.4" y="0" font-family="'Helvetica-Bold'" font-size="14">D</tspan><tspan x="81.6" y="0" font-family="'Helvetica-Bold'" font-size="14">i</tspan><tspan x="85.6" y="0" font-family="'Helvetica-Bold'" font-size="14">a</tspan><tspan x="93.5" y="0" font-family="'Helvetica-Bold'" font-size="14">g</tspan><tspan x="102.2" y="0" font-family="'Helvetica-Bold'" font-size="14">ra</tspan><tspan x="115.7" y="0" font-family="'Helvetica-Bold'" font-size="14">m</tspan></text>
		</g>
	</g>
	<text transform="matrix(1 0 0 1 752.2607 188.3974)"><tspan x="0" y="0" font-family="'HelveticaNeue'" font-size="12">Sea</tspan><tspan x="20.7" y="0" font-family="'HelveticaNeue'" font-size="12">r</tspan><tspan x="24.4" y="0" font-family="'HelveticaNeue'" font-size="12">ch Response</tspan></text>
	<text transform="matrix(1 0 0 1 756.8086 242.0014)"><tspan x="0" y="0" font-family="'HelveticaNeue'" font-size="12">Sea</tspan><tspan x="20.7" y="0" font-family="'HelveticaNeue'" font-size="12">r</tspan><tspan x="24.4" y="0" font-family="'HelveticaNeue'" font-size="12">ch Request</tspan></text>
	<text transform="matrix(1 0 0 1 301.9243 188.3974)"><tspan x="0" y="0" font-family="'HelveticaNeue'" font-size="12">Sea</tspan><tspan x="20.7" y="0" font-family="'HelveticaNeue'" font-size="12">r</tspan><tspan x="24.4" y="0" font-family="'HelveticaNeue'" font-size="12">ch Response</tspan></text>
	<text transform="matrix(1 0 0 1 342.1123 388.4013)"><tspan x="0" y="0" font-family="'HelveticaNeue'" font-size="12">V</tspan><tspan x="7.1" y="0" font-family="'HelveticaNeue'" font-size="12">iew Response</tspan></text>
	<text transform="matrix(1 0 0 1 722.2363 388.4013)"><tspan x="0" y="0" font-family="'HelveticaNeue'" font-size="12">V</tspan><tspan x="7.1" y="0" font-family="'HelveticaNeue'" font-size="12">iew Response</tspan></text>
	<text transform="matrix(1 0 0 1 306.4844 242.0014)"><tspan x="0" y="0" font-family="'HelveticaNeue'" font-size="12">Sea</tspan><tspan x="20.7" y="0" font-family="'HelveticaNeue'" font-size="12">r</tspan><tspan x="24.4" y="0" font-family="'HelveticaNeue'" font-size="12">ch Request</tspan></text>
	<text transform="matrix(1 0 0 1 346.6724 452.122)"><tspan x="0" y="0" font-family="'HelveticaNeue'" font-size="12">V</tspan><tspan x="7.1" y="0" font-family="'HelveticaNeue'" font-size="12">iew Request</tspan></text>
	<text transform="matrix(1 0 0 1 726.7964 452.122)"><tspan x="0" y="0" font-family="'HelveticaNeue'" font-size="12">V</tspan><tspan x="7.1" y="0" font-family="'HelveticaNeue'" font-size="12">iew Request</tspan></text>
	<path d="M311.4,640.7c0.9,0,1.5,0.2,2,0.7c0.4,0.4,0.7,1.1,0.7,1.9c0,0.8-0.2,1.4-0.7,1.9c-0.4,0.4-1.1,0.7-2,0.7h-2.6v3.5h-1.1
		v-8.6H311.4z M311,644.8c0.6,0,1.1-0.1,1.4-0.4c0.3-0.3,0.5-0.7,0.5-1.2c0-0.5-0.1-0.9-0.5-1.2c-0.3-0.3-0.8-0.4-1.4-0.4h-2.2v3.1
		H311z M320.8,648.4c-0.1,0-0.2,0-0.3,0c-0.2,0-0.3-0.1-0.3-0.2c0-0.1,0-0.3,0-0.5v-3.2c0-0.4-0.1-0.7-0.2-0.9
		c-0.1-0.2-0.3-0.4-0.5-0.5c-0.2-0.1-0.5-0.2-0.8-0.2c-0.3,0-0.6-0.1-0.8-0.1c-0.4,0-0.7,0-1,0.1c-0.3,0.1-0.6,0.2-0.8,0.4
		c-0.2,0.2-0.4,0.4-0.6,0.6c-0.1,0.3-0.2,0.6-0.2,1h1c0-0.5,0.2-0.8,0.5-0.9c0.3-0.2,0.6-0.2,1.1-0.2c0.2,0,0.3,0,0.5,0
		c0.2,0,0.3,0.1,0.4,0.1c0.1,0.1,0.2,0.2,0.3,0.3c0.1,0.1,0.1,0.3,0.1,0.5c0,0.2-0.1,0.3-0.2,0.4c-0.1,0.1-0.3,0.2-0.5,0.2
		c-0.2,0.1-0.4,0.1-0.7,0.1c-0.3,0-0.5,0.1-0.8,0.1c-0.3,0-0.5,0.1-0.8,0.2s-0.5,0.2-0.7,0.3c-0.2,0.1-0.4,0.3-0.5,0.5
		c-0.1,0.2-0.2,0.5-0.2,0.9c0,0.3,0.1,0.6,0.2,0.8c0.1,0.2,0.3,0.4,0.4,0.5c0.2,0.1,0.4,0.2,0.7,0.3s0.5,0.1,0.8,0.1
		c0.4,0,0.8-0.1,1.2-0.2s0.7-0.4,1-0.7c0,0.3,0.1,0.6,0.2,0.7c0.2,0.1,0.4,0.2,0.6,0.2c0.3,0,0.6-0.1,0.7-0.2V648.4z M319.1,647.1
		c0,0.1,0,0.3-0.1,0.5c-0.1,0.2-0.2,0.3-0.3,0.5c-0.2,0.1-0.3,0.3-0.6,0.3s-0.5,0.1-0.9,0.1c-0.2,0-0.3,0-0.5,0
		c-0.1,0-0.3-0.1-0.4-0.2c-0.1-0.1-0.2-0.2-0.3-0.3c-0.1-0.1-0.1-0.3-0.1-0.4c0-0.3,0.1-0.5,0.2-0.6c0.1-0.1,0.3-0.3,0.4-0.3
		c0.2-0.1,0.4-0.1,0.6-0.2c0.2,0,0.5-0.1,0.7-0.1c0.2,0,0.4-0.1,0.7-0.1c0.2,0,0.4-0.1,0.5-0.2V647.1z M325.4,644.1
		c-0.3-0.2-0.6-0.3-1-0.3c-0.4,0-0.7,0.1-0.9,0.2c-0.2,0.1-0.4,0.3-0.6,0.5c-0.1,0.2-0.3,0.5-0.3,0.8c-0.1,0.3-0.1,0.6-0.1,0.9
		c0,0.3,0,0.6,0.1,0.8c0.1,0.3,0.2,0.5,0.3,0.7c0.1,0.2,0.3,0.4,0.6,0.5c0.2,0.1,0.5,0.2,0.8,0.2c0.5,0,0.9-0.1,1.2-0.4
		c0.3-0.3,0.5-0.6,0.5-1.1h1c-0.1,0.8-0.4,1.4-0.9,1.8c-0.5,0.4-1.1,0.6-1.9,0.6c-0.5,0-0.9-0.1-1.3-0.2c-0.4-0.2-0.7-0.4-0.9-0.6
		c-0.2-0.3-0.4-0.6-0.6-1c-0.1-0.4-0.2-0.8-0.2-1.3c0-0.5,0.1-0.9,0.2-1.3c0.1-0.4,0.3-0.8,0.5-1.1c0.2-0.3,0.5-0.5,0.9-0.7
		c0.4-0.2,0.8-0.3,1.3-0.3c0.4,0,0.7,0,1,0.1c0.3,0.1,0.6,0.2,0.8,0.4c0.2,0.2,0.4,0.4,0.6,0.7c0.2,0.3,0.2,0.6,0.3,1h-1.1
		C325.8,644.6,325.7,644.3,325.4,644.1z M329.2,640.7v5.1l2.8-2.7h1.4l-2.5,2.3l2.6,3.9h-1.3l-2.1-3.2l-1,0.9v2.4h-1v-8.6H329.2z
		 M339.9,648.4c-0.1,0-0.2,0-0.3,0c-0.2,0-0.3-0.1-0.3-0.2c0-0.1,0-0.3,0-0.5v-3.2c0-0.4-0.1-0.7-0.2-0.9c-0.1-0.2-0.3-0.4-0.5-0.5
		c-0.2-0.1-0.5-0.2-0.8-0.2c-0.3,0-0.6-0.1-0.8-0.1c-0.4,0-0.7,0-1,0.1c-0.3,0.1-0.6,0.2-0.8,0.4c-0.2,0.2-0.4,0.4-0.6,0.6
		c-0.1,0.3-0.2,0.6-0.2,1h1c0-0.5,0.2-0.8,0.5-0.9c0.3-0.2,0.6-0.2,1.1-0.2c0.2,0,0.3,0,0.5,0c0.2,0,0.3,0.1,0.4,0.1
		c0.1,0.1,0.2,0.2,0.3,0.3c0.1,0.1,0.1,0.3,0.1,0.5c0,0.2-0.1,0.3-0.2,0.4c-0.1,0.1-0.3,0.2-0.5,0.2c-0.2,0.1-0.4,0.1-0.7,0.1
		c-0.3,0-0.5,0.1-0.8,0.1c-0.3,0-0.5,0.1-0.8,0.2s-0.5,0.2-0.7,0.3c-0.2,0.1-0.4,0.3-0.5,0.5c-0.1,0.2-0.2,0.5-0.2,0.9
		c0,0.3,0.1,0.6,0.2,0.8c0.1,0.2,0.3,0.4,0.4,0.5c0.2,0.1,0.4,0.2,0.7,0.3s0.5,0.1,0.8,0.1c0.4,0,0.8-0.1,1.2-0.2s0.7-0.4,1-0.7
		c0,0.3,0.1,0.6,0.2,0.7c0.2,0.1,0.4,0.2,0.6,0.2c0.3,0,0.6-0.1,0.7-0.2V648.4z M338.2,647.1c0,0.1,0,0.3-0.1,0.5
		c-0.1,0.2-0.2,0.3-0.3,0.5c-0.2,0.1-0.3,0.3-0.6,0.3s-0.5,0.1-0.9,0.1c-0.2,0-0.3,0-0.5,0c-0.1,0-0.3-0.1-0.4-0.2
		c-0.1-0.1-0.2-0.2-0.3-0.3c-0.1-0.1-0.1-0.3-0.1-0.4c0-0.3,0.1-0.5,0.2-0.6c0.1-0.1,0.3-0.3,0.4-0.3c0.2-0.1,0.4-0.1,0.6-0.2
		c0.2,0,0.5-0.1,0.7-0.1c0.2,0,0.4-0.1,0.7-0.1c0.2,0,0.4-0.1,0.5-0.2V647.1z M345.5,651c-0.5,0.5-1.2,0.8-2.2,0.8
		c-0.3,0-0.6,0-0.9-0.1c-0.3-0.1-0.6-0.2-0.8-0.3c-0.2-0.1-0.4-0.3-0.6-0.6c-0.2-0.2-0.2-0.5-0.3-0.9h1c0,0.2,0.1,0.3,0.2,0.5
		c0.1,0.1,0.2,0.2,0.4,0.3c0.2,0.1,0.3,0.1,0.5,0.2c0.2,0,0.4,0.1,0.5,0.1c0.3,0,0.6-0.1,0.9-0.2c0.2-0.1,0.4-0.3,0.6-0.5
		c0.2-0.2,0.3-0.5,0.3-0.7c0.1-0.3,0.1-0.6,0.1-0.9v-0.4h0c-0.2,0.4-0.4,0.7-0.8,0.8c-0.4,0.2-0.7,0.3-1.1,0.3
		c-0.5,0-0.9-0.1-1.2-0.3c-0.3-0.2-0.6-0.4-0.9-0.7c-0.2-0.3-0.4-0.6-0.5-1c-0.1-0.4-0.2-0.8-0.2-1.2c0-0.4,0-0.7,0.1-1.1
		c0.1-0.4,0.3-0.7,0.5-1.1c0.2-0.3,0.5-0.6,0.9-0.8c0.4-0.2,0.8-0.3,1.4-0.3c0.4,0,0.8,0.1,1.1,0.3c0.3,0.2,0.6,0.4,0.8,0.8h0V643h1
		v5.7C346.2,649.7,345.9,650.5,345.5,651z M344.2,648.2c0.2-0.1,0.4-0.3,0.6-0.6c0.1-0.2,0.2-0.5,0.3-0.8c0.1-0.3,0.1-0.6,0.1-0.9
		c0-0.3,0-0.5-0.1-0.8c-0.1-0.3-0.2-0.5-0.3-0.7c-0.1-0.2-0.3-0.4-0.5-0.5c-0.2-0.1-0.5-0.2-0.8-0.2c-0.3,0-0.6,0.1-0.8,0.2
		c-0.2,0.1-0.4,0.3-0.6,0.5c-0.1,0.2-0.3,0.4-0.3,0.7c-0.1,0.3-0.1,0.6-0.1,0.9c0,0.3,0,0.6,0.1,0.8c0.1,0.3,0.2,0.5,0.3,0.8
		c0.1,0.2,0.3,0.4,0.5,0.6c0.2,0.1,0.5,0.2,0.8,0.2C343.7,648.4,343.9,648.3,344.2,648.2z M352.1,648.8c-0.5,0.4-1,0.5-1.8,0.5
		c-0.5,0-0.9-0.1-1.3-0.2c-0.4-0.2-0.7-0.4-0.9-0.7c-0.2-0.3-0.4-0.6-0.6-1c-0.1-0.4-0.2-0.8-0.2-1.3c0-0.5,0.1-0.9,0.2-1.3
		c0.1-0.4,0.3-0.7,0.6-1c0.3-0.3,0.6-0.5,0.9-0.7c0.4-0.2,0.7-0.2,1.2-0.2c0.6,0,1,0.1,1.4,0.3c0.4,0.2,0.7,0.5,0.9,0.9
		c0.2,0.4,0.4,0.7,0.5,1.2c0.1,0.4,0.1,0.8,0.1,1.2h-4.6c0,0.3,0,0.5,0.1,0.8c0.1,0.2,0.2,0.5,0.3,0.6c0.2,0.2,0.4,0.3,0.6,0.4
		c0.2,0.1,0.5,0.2,0.9,0.2c0.4,0,0.8-0.1,1.1-0.3c0.3-0.2,0.5-0.5,0.5-0.9h1C352.9,647.9,352.6,648.5,352.1,648.8z M351.9,644.8
		c-0.1-0.2-0.2-0.4-0.4-0.6s-0.3-0.3-0.6-0.4c-0.2-0.1-0.4-0.1-0.7-0.1c-0.3,0-0.5,0-0.7,0.1c-0.2,0.1-0.4,0.2-0.5,0.4
		c-0.2,0.2-0.3,0.3-0.4,0.6c-0.1,0.2-0.1,0.4-0.2,0.7h3.6C352,645.3,352,645.1,351.9,644.8z M357.4,644.8c0.1-0.4,0.3-0.7,0.6-1
		c0.3-0.3,0.6-0.5,0.9-0.7c0.4-0.2,0.8-0.3,1.3-0.3c0.5,0,0.9,0.1,1.3,0.3c0.4,0.2,0.7,0.4,0.9,0.7c0.3,0.3,0.4,0.6,0.6,1
		c0.1,0.4,0.2,0.8,0.2,1.3s-0.1,0.9-0.2,1.3c-0.1,0.4-0.3,0.7-0.6,1c-0.3,0.3-0.6,0.5-0.9,0.7c-0.4,0.2-0.8,0.2-1.3,0.2
		c-0.5,0-0.9-0.1-1.3-0.2c-0.4-0.2-0.7-0.4-0.9-0.7c-0.3-0.3-0.4-0.6-0.6-1c-0.1-0.4-0.2-0.8-0.2-1.3S357.2,645.2,357.4,644.8z
		 M358.4,647.1c0.1,0.3,0.2,0.5,0.4,0.7c0.2,0.2,0.4,0.3,0.6,0.5c0.2,0.1,0.5,0.2,0.8,0.2s0.5-0.1,0.8-0.2c0.2-0.1,0.4-0.3,0.6-0.5
		c0.2-0.2,0.3-0.4,0.4-0.7c0.1-0.3,0.1-0.6,0.1-1c0-0.4-0.1-0.7-0.1-1c-0.1-0.3-0.2-0.5-0.4-0.7c-0.2-0.2-0.4-0.4-0.6-0.5
		c-0.2-0.1-0.5-0.2-0.8-0.2s-0.5,0.1-0.8,0.2c-0.2,0.1-0.4,0.3-0.6,0.5c-0.2,0.2-0.3,0.4-0.4,0.7c-0.1,0.3-0.1,0.6-0.1,1
		C358.2,646.5,358.3,646.8,358.4,647.1z M363.8,643.9V643h1v-0.9c0-0.5,0.1-0.9,0.4-1.1c0.3-0.3,0.7-0.4,1.3-0.4c0.1,0,0.2,0,0.3,0
		c0.1,0,0.2,0,0.3,0.1v0.9c-0.1,0-0.2-0.1-0.3-0.1c-0.1,0-0.2,0-0.3,0c-0.2,0-0.4,0-0.6,0.1c-0.1,0.1-0.2,0.3-0.2,0.6v0.9h1.2v0.9
		h-1.2v5.3h-1v-5.3H363.8z M370.6,643.9V643h1v-0.9c0-0.5,0.1-0.9,0.4-1.1c0.3-0.3,0.7-0.4,1.3-0.4c0.1,0,0.2,0,0.3,0
		c0.1,0,0.2,0,0.3,0.1v0.9c-0.1,0-0.2-0.1-0.3-0.1c-0.1,0-0.2,0-0.3,0c-0.2,0-0.4,0-0.6,0.1c-0.1,0.1-0.2,0.3-0.2,0.6v0.9h1.2v0.9
		h-1.2v5.3h-1v-5.3H370.6z M374.9,640.7h1v1.2h-1V640.7z M374.9,643h1v6.2h-1V643z M378.6,640.7v8.6h-1v-8.6H378.6z M384.5,648.8
		c-0.5,0.4-1,0.5-1.8,0.5c-0.5,0-0.9-0.1-1.3-0.2c-0.4-0.2-0.7-0.4-0.9-0.7c-0.2-0.3-0.4-0.6-0.6-1c-0.1-0.4-0.2-0.8-0.2-1.3
		c0-0.5,0.1-0.9,0.2-1.3c0.1-0.4,0.3-0.7,0.6-1c0.3-0.3,0.6-0.5,0.9-0.7c0.4-0.2,0.7-0.2,1.2-0.2c0.6,0,1,0.1,1.4,0.3
		c0.4,0.2,0.7,0.5,0.9,0.9c0.2,0.4,0.4,0.7,0.5,1.2c0.1,0.4,0.1,0.8,0.1,1.2h-4.6c0,0.3,0,0.5,0.1,0.8c0.1,0.2,0.2,0.5,0.3,0.6
		c0.2,0.2,0.4,0.3,0.6,0.4c0.2,0.1,0.5,0.2,0.9,0.2c0.4,0,0.8-0.1,1.1-0.3c0.3-0.2,0.5-0.5,0.5-0.9h1
		C385.3,647.9,385,648.5,384.5,648.8z M384.3,644.8c-0.1-0.2-0.2-0.4-0.4-0.6s-0.3-0.3-0.6-0.4c-0.2-0.1-0.4-0.1-0.7-0.1
		c-0.3,0-0.5,0-0.7,0.1c-0.2,0.1-0.4,0.2-0.5,0.4c-0.2,0.2-0.3,0.3-0.4,0.6c-0.1,0.2-0.1,0.4-0.2,0.7h3.6
		C384.4,645.3,384.4,645.1,384.3,644.8z M387.4,647.8c0.1,0.2,0.2,0.3,0.4,0.4c0.2,0.1,0.3,0.2,0.5,0.2c0.2,0,0.4,0.1,0.6,0.1
		c0.2,0,0.3,0,0.5,0c0.2,0,0.3-0.1,0.5-0.1c0.1-0.1,0.3-0.2,0.4-0.3c0.1-0.1,0.1-0.3,0.1-0.5c0-0.3-0.1-0.5-0.3-0.6
		c-0.2-0.1-0.5-0.2-0.8-0.3c-0.3-0.1-0.6-0.2-1-0.2c-0.4-0.1-0.7-0.2-1-0.3c-0.3-0.1-0.6-0.3-0.8-0.5c-0.2-0.2-0.3-0.5-0.3-0.9
		c0-0.3,0.1-0.6,0.2-0.8c0.1-0.2,0.3-0.4,0.5-0.5c0.2-0.1,0.5-0.2,0.7-0.3c0.3-0.1,0.5-0.1,0.8-0.1c0.4,0,0.7,0,1,0.1
		c0.3,0.1,0.6,0.2,0.8,0.3c0.2,0.1,0.4,0.3,0.5,0.6c0.1,0.3,0.2,0.6,0.2,0.9h-1c0-0.2-0.1-0.4-0.2-0.5c-0.1-0.1-0.2-0.2-0.3-0.3
		c-0.1-0.1-0.3-0.1-0.4-0.2c-0.2,0-0.3-0.1-0.5-0.1c-0.2,0-0.3,0-0.5,0c-0.2,0-0.3,0.1-0.4,0.1c-0.1,0.1-0.2,0.1-0.3,0.2
		c-0.1,0.1-0.1,0.2-0.1,0.4c0,0.2,0.1,0.3,0.2,0.4c0.1,0.1,0.3,0.2,0.5,0.3c0.2,0.1,0.4,0.1,0.6,0.2c0.2,0.1,0.5,0.1,0.7,0.2
		c0.3,0.1,0.5,0.1,0.8,0.2c0.2,0.1,0.5,0.2,0.6,0.3c0.2,0.1,0.3,0.3,0.5,0.5c0.1,0.2,0.2,0.4,0.2,0.7c0,0.4-0.1,0.7-0.2,0.9
		c-0.2,0.2-0.4,0.4-0.6,0.6c-0.3,0.2-0.5,0.3-0.9,0.3c-0.3,0.1-0.6,0.1-0.9,0.1c-0.3,0-0.7,0-1-0.1c-0.3-0.1-0.6-0.2-0.8-0.4
		c-0.2-0.2-0.4-0.4-0.6-0.6c-0.1-0.3-0.2-0.6-0.2-1h1C387.2,647.5,387.3,647.7,387.4,647.8z"/>
	<path d="M647.2,683.6c0.9,0,1.5,0.2,2,0.7c0.4,0.4,0.7,1.1,0.7,1.9c0,0.8-0.2,1.4-0.7,1.9c-0.4,0.4-1.1,0.7-2,0.7h-2.6v3.5h-1.1
		v-8.6H647.2z M646.9,687.7c0.6,0,1.1-0.1,1.4-0.4c0.3-0.3,0.5-0.7,0.5-1.2c0-0.5-0.1-0.9-0.5-1.2c-0.3-0.3-0.8-0.4-1.4-0.4h-2.2
		v3.1H646.9z M656.6,691.3c-0.1,0-0.2,0-0.3,0c-0.2,0-0.3-0.1-0.3-0.2c0-0.1,0-0.3,0-0.5v-3.2c0-0.4-0.1-0.7-0.2-0.9
		c-0.1-0.2-0.3-0.4-0.5-0.5c-0.2-0.1-0.5-0.2-0.8-0.2c-0.3,0-0.6-0.1-0.8-0.1c-0.4,0-0.7,0-1,0.1c-0.3,0.1-0.6,0.2-0.8,0.4
		c-0.2,0.2-0.4,0.4-0.6,0.6c-0.1,0.3-0.2,0.6-0.2,1h1c0-0.5,0.2-0.8,0.5-0.9c0.3-0.2,0.6-0.2,1.1-0.2c0.2,0,0.3,0,0.5,0
		c0.2,0,0.3,0.1,0.4,0.1c0.1,0.1,0.2,0.2,0.3,0.3c0.1,0.1,0.1,0.3,0.1,0.5c0,0.2-0.1,0.3-0.2,0.4c-0.1,0.1-0.3,0.2-0.5,0.2
		c-0.2,0.1-0.4,0.1-0.7,0.1c-0.3,0-0.5,0.1-0.8,0.1c-0.3,0-0.5,0.1-0.8,0.2c-0.3,0.1-0.5,0.2-0.7,0.3c-0.2,0.1-0.4,0.3-0.5,0.5
		c-0.1,0.2-0.2,0.5-0.2,0.9c0,0.3,0.1,0.6,0.2,0.8c0.1,0.2,0.3,0.4,0.4,0.5c0.2,0.1,0.4,0.2,0.7,0.3c0.3,0.1,0.5,0.1,0.8,0.1
		c0.4,0,0.8-0.1,1.2-0.2s0.7-0.4,1-0.7c0,0.3,0.1,0.6,0.2,0.7s0.4,0.2,0.6,0.2c0.3,0,0.6-0.1,0.7-0.2V691.3z M654.9,690
		c0,0.1,0,0.3-0.1,0.5s-0.2,0.3-0.3,0.5c-0.2,0.1-0.3,0.3-0.6,0.3s-0.5,0.1-0.9,0.1c-0.2,0-0.3,0-0.5,0c-0.1,0-0.3-0.1-0.4-0.2
		c-0.1-0.1-0.2-0.2-0.3-0.3c-0.1-0.1-0.1-0.3-0.1-0.4c0-0.3,0.1-0.5,0.2-0.6c0.1-0.1,0.3-0.3,0.5-0.3c0.2-0.1,0.4-0.1,0.6-0.2
		c0.2,0,0.5-0.1,0.7-0.1c0.2,0,0.4-0.1,0.7-0.1c0.2,0,0.4-0.1,0.5-0.2V690z M661.2,687c-0.3-0.2-0.6-0.3-1-0.3
		c-0.4,0-0.7,0.1-0.9,0.2c-0.2,0.1-0.4,0.3-0.6,0.5c-0.1,0.2-0.3,0.5-0.3,0.8c-0.1,0.3-0.1,0.6-0.1,0.9c0,0.3,0,0.6,0.1,0.8
		c0.1,0.3,0.2,0.5,0.3,0.7c0.1,0.2,0.3,0.4,0.6,0.5c0.2,0.1,0.5,0.2,0.8,0.2c0.5,0,0.9-0.1,1.2-0.4c0.3-0.3,0.5-0.6,0.5-1.1h1
		c-0.1,0.8-0.4,1.4-0.9,1.8c-0.5,0.4-1.1,0.6-1.9,0.6c-0.5,0-0.9-0.1-1.3-0.2c-0.4-0.2-0.7-0.4-0.9-0.6c-0.2-0.3-0.4-0.6-0.6-1
		c-0.1-0.4-0.2-0.8-0.2-1.3c0-0.5,0.1-0.9,0.2-1.3c0.1-0.4,0.3-0.8,0.5-1.1c0.2-0.3,0.5-0.5,0.9-0.7c0.4-0.2,0.8-0.3,1.3-0.3
		c0.4,0,0.7,0,1,0.1c0.3,0.1,0.6,0.2,0.8,0.4c0.2,0.2,0.4,0.4,0.6,0.7c0.2,0.3,0.2,0.6,0.3,1h-1.1
		C661.7,687.5,661.5,687.2,661.2,687z M665.1,683.6v5.1l2.8-2.7h1.4l-2.5,2.3l2.6,3.9h-1.3l-2.1-3.2l-1,0.9v2.4h-1v-8.6H665.1z
		 M675.7,691.3c-0.1,0-0.2,0-0.3,0c-0.2,0-0.3-0.1-0.3-0.2c0-0.1,0-0.3,0-0.5v-3.2c0-0.4-0.1-0.7-0.2-0.9c-0.1-0.2-0.3-0.4-0.5-0.5
		c-0.2-0.1-0.5-0.2-0.8-0.2c-0.3,0-0.6-0.1-0.8-0.1c-0.4,0-0.7,0-1,0.1c-0.3,0.1-0.6,0.2-0.8,0.4c-0.2,0.2-0.4,0.4-0.6,0.6
		c-0.1,0.3-0.2,0.6-0.2,1h1c0-0.5,0.2-0.8,0.5-0.9c0.3-0.2,0.6-0.2,1.1-0.2c0.2,0,0.3,0,0.5,0c0.2,0,0.3,0.1,0.4,0.1
		c0.1,0.1,0.2,0.2,0.3,0.3c0.1,0.1,0.1,0.3,0.1,0.5c0,0.2-0.1,0.3-0.2,0.4c-0.1,0.1-0.3,0.2-0.5,0.2c-0.2,0.1-0.4,0.1-0.7,0.1
		c-0.3,0-0.5,0.1-0.8,0.1c-0.3,0-0.5,0.1-0.8,0.2c-0.3,0.1-0.5,0.2-0.7,0.3c-0.2,0.1-0.4,0.3-0.5,0.5c-0.1,0.2-0.2,0.5-0.2,0.9
		c0,0.3,0.1,0.6,0.2,0.8c0.1,0.2,0.3,0.4,0.4,0.5c0.2,0.1,0.4,0.2,0.7,0.3c0.3,0.1,0.5,0.1,0.8,0.1c0.4,0,0.8-0.1,1.2-0.2
		s0.7-0.4,1-0.7c0,0.3,0.1,0.6,0.2,0.7s0.4,0.2,0.6,0.2c0.3,0,0.6-0.1,0.7-0.2V691.3z M674,690c0,0.1,0,0.3-0.1,0.5
		s-0.2,0.3-0.3,0.5c-0.2,0.1-0.3,0.3-0.6,0.3s-0.5,0.1-0.9,0.1c-0.2,0-0.3,0-0.5,0c-0.1,0-0.3-0.1-0.4-0.2c-0.1-0.1-0.2-0.2-0.3-0.3
		c-0.1-0.1-0.1-0.3-0.1-0.4c0-0.3,0.1-0.5,0.2-0.6c0.1-0.1,0.3-0.3,0.5-0.3c0.2-0.1,0.4-0.1,0.6-0.2c0.2,0,0.5-0.1,0.7-0.1
		c0.2,0,0.4-0.1,0.7-0.1c0.2,0,0.4-0.1,0.5-0.2V690z M681.3,693.9c-0.5,0.5-1.2,0.8-2.2,0.8c-0.3,0-0.6,0-0.9-0.1
		c-0.3-0.1-0.6-0.2-0.8-0.3c-0.2-0.1-0.4-0.3-0.6-0.6c-0.2-0.2-0.2-0.5-0.3-0.9h1c0,0.2,0.1,0.3,0.2,0.5c0.1,0.1,0.2,0.2,0.4,0.3
		c0.2,0.1,0.3,0.1,0.5,0.2c0.2,0,0.4,0.1,0.5,0.1c0.3,0,0.6-0.1,0.9-0.2c0.2-0.1,0.4-0.3,0.6-0.5c0.2-0.2,0.3-0.4,0.3-0.7
		c0.1-0.3,0.1-0.6,0.1-0.9v-0.4h0c-0.2,0.4-0.4,0.7-0.8,0.8c-0.4,0.2-0.7,0.3-1.1,0.3c-0.5,0-0.9-0.1-1.2-0.3
		c-0.3-0.2-0.6-0.4-0.9-0.7c-0.2-0.3-0.4-0.6-0.5-1c-0.1-0.4-0.2-0.8-0.2-1.2c0-0.4,0-0.7,0.1-1.1c0.1-0.4,0.3-0.7,0.5-1.1
		c0.2-0.3,0.5-0.6,0.9-0.8c0.4-0.2,0.8-0.3,1.4-0.3c0.4,0,0.8,0.1,1.1,0.3c0.3,0.2,0.6,0.4,0.8,0.8h0v-0.9h1v5.7
		C682,692.6,681.8,693.4,681.3,693.9z M680,691.1c0.2-0.1,0.4-0.3,0.6-0.6c0.1-0.2,0.2-0.5,0.3-0.8c0.1-0.3,0.1-0.6,0.1-0.9
		c0-0.3,0-0.5-0.1-0.8c-0.1-0.3-0.2-0.5-0.3-0.7c-0.1-0.2-0.3-0.4-0.5-0.5c-0.2-0.1-0.5-0.2-0.8-0.2c-0.3,0-0.6,0.1-0.8,0.2
		c-0.2,0.1-0.4,0.3-0.6,0.5c-0.1,0.2-0.3,0.4-0.3,0.7c-0.1,0.3-0.1,0.6-0.1,0.9c0,0.3,0,0.6,0.1,0.8c0.1,0.3,0.2,0.5,0.3,0.8
		c0.1,0.2,0.3,0.4,0.5,0.6c0.2,0.1,0.5,0.2,0.8,0.2S679.8,691.2,680,691.1z M687.9,691.7c-0.5,0.4-1,0.5-1.8,0.5
		c-0.5,0-0.9-0.1-1.3-0.2c-0.4-0.2-0.7-0.4-0.9-0.7c-0.2-0.3-0.4-0.6-0.6-1c-0.1-0.4-0.2-0.8-0.2-1.3c0-0.5,0.1-0.9,0.2-1.3
		c0.1-0.4,0.3-0.7,0.6-1c0.3-0.3,0.6-0.5,0.9-0.7c0.4-0.2,0.7-0.2,1.2-0.2c0.6,0,1,0.1,1.4,0.3c0.4,0.2,0.7,0.5,0.9,0.9
		c0.2,0.4,0.4,0.7,0.5,1.2c0.1,0.4,0.1,0.8,0.1,1.2h-4.6c0,0.3,0,0.5,0.1,0.8c0.1,0.2,0.2,0.5,0.3,0.6c0.2,0.2,0.4,0.3,0.6,0.5
		c0.2,0.1,0.5,0.2,0.9,0.2c0.4,0,0.8-0.1,1.1-0.3c0.3-0.2,0.5-0.5,0.5-0.9h1C688.7,690.8,688.4,691.4,687.9,691.7z M687.7,687.7
		c-0.1-0.2-0.2-0.4-0.4-0.6c-0.2-0.2-0.3-0.3-0.6-0.4c-0.2-0.1-0.4-0.1-0.7-0.1c-0.3,0-0.5,0-0.7,0.1c-0.2,0.1-0.4,0.2-0.5,0.4
		c-0.2,0.2-0.3,0.3-0.4,0.6c-0.1,0.2-0.1,0.4-0.2,0.7h3.6C687.8,688.2,687.8,688,687.7,687.7z M693.2,687.7c0.1-0.4,0.3-0.7,0.6-1
		c0.3-0.3,0.6-0.5,0.9-0.7c0.4-0.2,0.8-0.3,1.3-0.3c0.5,0,0.9,0.1,1.3,0.3c0.4,0.2,0.7,0.4,0.9,0.7c0.3,0.3,0.4,0.6,0.6,1
		c0.1,0.4,0.2,0.8,0.2,1.3s-0.1,0.9-0.2,1.3c-0.1,0.4-0.3,0.7-0.6,1c-0.3,0.3-0.6,0.5-0.9,0.7c-0.4,0.2-0.8,0.2-1.3,0.2
		c-0.5,0-0.9-0.1-1.3-0.2c-0.4-0.2-0.7-0.4-0.9-0.7c-0.3-0.3-0.4-0.6-0.6-1c-0.1-0.4-0.2-0.8-0.2-1.3S693,688.1,693.2,687.7z
		 M694.2,690c0.1,0.3,0.2,0.5,0.4,0.7c0.2,0.2,0.4,0.3,0.6,0.5c0.2,0.1,0.5,0.2,0.8,0.2c0.3,0,0.5-0.1,0.8-0.2
		c0.2-0.1,0.4-0.3,0.6-0.5c0.2-0.2,0.3-0.4,0.4-0.7c0.1-0.3,0.1-0.6,0.1-1c0-0.4-0.1-0.7-0.1-1c-0.1-0.3-0.2-0.5-0.4-0.7
		c-0.2-0.2-0.4-0.4-0.6-0.5c-0.2-0.1-0.5-0.2-0.8-0.2c-0.3,0-0.5,0.1-0.8,0.2c-0.2,0.1-0.4,0.3-0.6,0.5c-0.2,0.2-0.3,0.4-0.4,0.7
		c-0.1,0.3-0.1,0.6-0.1,1C694.1,689.4,694.1,689.7,694.2,690z M699.6,686.8v-0.9h1V685c0-0.5,0.1-0.9,0.4-1.1
		c0.3-0.3,0.7-0.4,1.3-0.4c0.1,0,0.2,0,0.3,0c0.1,0,0.2,0,0.3,0.1v0.9c-0.1,0-0.2-0.1-0.3-0.1c-0.1,0-0.2,0-0.3,0
		c-0.2,0-0.4,0-0.6,0.1c-0.1,0.1-0.2,0.3-0.2,0.6v0.9h1.2v0.9h-1.2v5.3h-1v-5.3H699.6z M706.5,686.8v-0.9h1V685
		c0-0.5,0.1-0.9,0.4-1.1c0.3-0.3,0.7-0.4,1.3-0.4c0.1,0,0.2,0,0.3,0c0.1,0,0.2,0,0.3,0.1v0.9c-0.1,0-0.2-0.1-0.3-0.1
		c-0.1,0-0.2,0-0.3,0c-0.2,0-0.4,0-0.6,0.1c-0.1,0.1-0.2,0.3-0.2,0.6v0.9h1.2v0.9h-1.2v5.3h-1v-5.3H706.5z M710.7,683.6h1v1.2h-1
		V683.6z M710.7,685.9h1v6.2h-1V685.9z M714.4,683.6v8.6h-1v-8.6H714.4z M720.4,691.7c-0.5,0.4-1,0.5-1.8,0.5
		c-0.5,0-0.9-0.1-1.3-0.2c-0.4-0.2-0.7-0.4-0.9-0.7c-0.2-0.3-0.4-0.6-0.6-1c-0.1-0.4-0.2-0.8-0.2-1.3c0-0.5,0.1-0.9,0.2-1.3
		c0.1-0.4,0.3-0.7,0.6-1c0.3-0.3,0.6-0.5,0.9-0.7c0.4-0.2,0.7-0.2,1.2-0.2c0.6,0,1,0.1,1.4,0.3c0.4,0.2,0.7,0.5,0.9,0.9
		c0.2,0.4,0.4,0.7,0.5,1.2c0.1,0.4,0.1,0.8,0.1,1.2h-4.6c0,0.3,0,0.5,0.1,0.8c0.1,0.2,0.2,0.5,0.3,0.6c0.2,0.2,0.4,0.3,0.6,0.5
		c0.2,0.1,0.5,0.2,0.9,0.2c0.4,0,0.8-0.1,1.1-0.3c0.3-0.2,0.5-0.5,0.5-0.9h1C721.1,690.8,720.8,691.4,720.4,691.7z M720.1,687.7
		c-0.1-0.2-0.2-0.4-0.4-0.6c-0.2-0.2-0.3-0.3-0.6-0.4c-0.2-0.1-0.4-0.1-0.7-0.1c-0.3,0-0.5,0-0.7,0.1c-0.2,0.1-0.4,0.2-0.5,0.4
		c-0.2,0.2-0.3,0.3-0.4,0.6c-0.1,0.2-0.1,0.4-0.2,0.7h3.6C720.3,688.2,720.2,688,720.1,687.7z M723.2,690.7c0.1,0.2,0.2,0.3,0.4,0.4
		c0.2,0.1,0.3,0.2,0.5,0.2c0.2,0,0.4,0.1,0.6,0.1c0.2,0,0.3,0,0.5,0c0.2,0,0.3-0.1,0.5-0.1c0.1-0.1,0.3-0.2,0.4-0.3
		c0.1-0.1,0.1-0.3,0.1-0.5c0-0.3-0.1-0.5-0.3-0.6c-0.2-0.1-0.5-0.2-0.8-0.3c-0.3-0.1-0.6-0.2-1-0.2c-0.4-0.1-0.7-0.2-1-0.3
		c-0.3-0.1-0.6-0.3-0.8-0.5c-0.2-0.2-0.3-0.5-0.3-0.9c0-0.3,0.1-0.6,0.2-0.8c0.1-0.2,0.3-0.4,0.5-0.5c0.2-0.1,0.5-0.2,0.7-0.3
		c0.3-0.1,0.5-0.1,0.8-0.1c0.4,0,0.7,0,1,0.1c0.3,0.1,0.6,0.2,0.8,0.3c0.2,0.1,0.4,0.3,0.5,0.6c0.1,0.3,0.2,0.6,0.2,0.9h-1
		c0-0.2-0.1-0.4-0.2-0.5c-0.1-0.1-0.2-0.2-0.3-0.3c-0.1-0.1-0.3-0.1-0.5-0.2c-0.2,0-0.3-0.1-0.5-0.1c-0.2,0-0.3,0-0.5,0
		c-0.2,0-0.3,0.1-0.4,0.1c-0.1,0.1-0.2,0.1-0.3,0.2c-0.1,0.1-0.1,0.2-0.1,0.4c0,0.2,0.1,0.3,0.2,0.4c0.1,0.1,0.3,0.2,0.5,0.3
		c0.2,0.1,0.4,0.1,0.6,0.2c0.2,0.1,0.5,0.1,0.7,0.2c0.3,0.1,0.5,0.1,0.8,0.2c0.2,0.1,0.5,0.2,0.6,0.3c0.2,0.1,0.3,0.3,0.5,0.5
		c0.1,0.2,0.2,0.4,0.2,0.7c0,0.4-0.1,0.7-0.2,0.9c-0.2,0.2-0.4,0.4-0.6,0.6c-0.3,0.2-0.5,0.3-0.9,0.3c-0.3,0.1-0.6,0.1-0.9,0.1
		c-0.3,0-0.7,0-1-0.1s-0.6-0.2-0.8-0.4c-0.2-0.2-0.4-0.4-0.6-0.6c-0.1-0.3-0.2-0.6-0.2-1h1C723,690.4,723.1,690.6,723.2,690.7z"/>
	<text transform="matrix(1 0 0 1 951.0762 692.122)" font-family="'HelveticaNeue'" font-size="12">SPDX Document</text>
	<text transform="matrix(1 0 0 1 778.6963 594.0937)" font-family="'HelveticaNeue'" font-size="12">SPDX Document</text>
	<text transform="matrix(1 0 0 1 304.1445 590.4931)" font-family="'HelveticaNeue'" font-size="12">SPDX Document</text>
</g>
</svg>
